<svg width="161" height="161" viewBox="0 0 161 161" fill="none" xmlns="http://www.w3.org/2000/svg">
<path d="M42 39H114V128H42V39Z" fill="#B6C7AA"/>
<path d="M92.0819 57.9677C90.5146 57.1073 88.16 56.6797 85.0256 56.6797H68.1885V76.289H84.6029C87.8607 76.289 90.3084 75.8965 91.9385 75.0991C94.8214 73.713 96.2679 70.976 96.2679 66.878C96.2679 62.4581 94.8717 59.4846 92.0819 57.9677Z" fill="#4F493E"/>
<path d="M80.505 5.03125C38.8262 5.03125 5.03125 38.8211 5.03125 80.5C5.03125 122.179 38.8262 155.969 80.505 155.969C122.184 155.969 155.974 122.179 155.974 80.5C155.974 38.8211 122.184 5.03125 80.505 5.03125ZM112.755 116.997H95.9183C95.538 115.706 95.2082 114.401 94.9296 113.085C94.5285 111.012 94.313 108.907 94.2856 106.796L94.1825 100.011C94.1246 95.3573 93.3171 92.253 91.77 90.7009C90.2279 89.1538 87.3274 88.3764 83.0835 88.3764H68.186V116.997H53.2809V44.0033H88.1953C93.1863 44.1014 97.0251 44.7303 99.7118 45.885C102.399 47.0397 104.68 48.7402 106.547 50.9842C108.085 52.8253 109.324 54.8977 110.217 57.1248C111.115 59.3713 111.568 61.9246 111.568 64.8C111.568 68.269 110.693 71.6727 108.944 75.0235C107.196 78.3743 104.305 80.7415 100.278 82.1326C103.644 83.4835 106.031 85.4105 107.432 87.901C108.839 90.3914 109.54 94.2001 109.54 99.3144V104.217C109.54 107.548 109.674 109.815 109.943 111.002C110.345 112.884 111.284 114.27 112.758 115.158L112.755 116.997Z" fill="#4F493E"/>
</svg>
