<svg width="216" height="148" viewBox="0 0 216 148" fill="none" xmlns="http://www.w3.org/2000/svg">
<path d="M35.0391 73.0977H17.6953L17.5781 64.0156H33.6914C36.1133 64.0156 38.2617 63.4688 40.1367 62.375C42.0117 61.2812 43.4766 59.7188 44.5312 57.6875C45.625 55.6172 46.1719 53.1562 46.1719 50.3047C46.1719 47.1797 45.7031 44.6406 44.7656 42.6875C43.8672 40.6953 42.4805 39.25 40.6055 38.3516C38.7695 37.4141 36.4258 36.9453 33.5742 36.9453H19.9805V113H9.19922V27.6875H33.5742C37.2461 27.6875 40.5273 28.1367 43.418 29.0352C46.3086 29.8945 48.75 31.2617 50.7422 33.1367C52.7734 34.9727 54.3164 37.3164 55.3711 40.168C56.4258 43.0195 56.9531 46.4375 56.9531 50.4219C56.9531 53.9375 56.1523 57.1211 54.5508 59.9727C52.9883 62.7852 50.8008 65.0898 47.9883 66.8867C45.1758 68.6836 41.9336 69.8359 38.2617 70.3438L35.0391 73.0977ZM34.6289 113H13.2422L19.5117 103.801H34.6289C37.4414 103.801 39.8242 103.176 41.7773 101.926C43.7305 100.676 45.2148 98.918 46.2305 96.6523C47.2852 94.3477 47.8125 91.6328 47.8125 88.5078C47.8125 85.3438 47.3828 82.6094 46.5234 80.3047C45.6641 78 44.2969 76.2227 42.4219 74.9727C40.5469 73.7227 38.0859 73.0977 35.0391 73.0977H21.1523L21.2695 64.0156H40.0195L42.4219 67.2969C45.9375 67.6484 48.8867 68.8203 51.2695 70.8125C53.6914 72.7656 55.5078 75.2656 56.7188 78.3125C57.9688 81.3594 58.5938 84.7188 58.5938 88.3906C58.5938 93.7031 57.5977 98.1953 55.6055 101.867C53.6523 105.5 50.8789 108.273 47.2852 110.188C43.6914 112.062 39.4727 113 34.6289 113ZM85.957 27.6875V113H75.1758V27.6875H85.957ZM160.195 62.9609V77.7852C160.195 83.8008 159.531 89.0938 158.203 93.6641C156.914 98.1953 155.02 101.984 152.52 105.031C150.02 108.078 147.012 110.363 143.496 111.887C139.98 113.41 136.016 114.172 131.602 114.172C127.344 114.172 123.457 113.41 119.941 111.887C116.426 110.363 113.398 108.078 110.859 105.031C108.32 101.984 106.348 98.1953 104.941 93.6641C103.574 89.0938 102.891 83.8008 102.891 77.7852V62.9609C102.891 56.9453 103.574 51.6719 104.941 47.1406C106.309 42.5703 108.262 38.7617 110.801 35.7148C113.34 32.668 116.367 30.3828 119.883 28.8594C123.398 27.2969 127.285 26.5156 131.543 26.5156C135.957 26.5156 139.922 27.2969 143.438 28.8594C146.992 30.3828 150 32.668 152.461 35.7148C154.961 38.7617 156.875 42.5703 158.203 47.1406C159.531 51.6719 160.195 56.9453 160.195 62.9609ZM149.531 77.7852V62.8438C149.531 58.1562 149.141 54.1328 148.359 50.7734C147.578 47.375 146.426 44.6016 144.902 42.4531C143.379 40.3047 141.504 38.7227 139.277 37.707C137.051 36.6523 134.473 36.125 131.543 36.125C128.77 36.125 126.27 36.6523 124.043 37.707C121.855 38.7227 119.98 40.3047 118.418 42.4531C116.855 44.6016 115.645 47.375 114.785 50.7734C113.965 54.1328 113.555 58.1562 113.555 62.8438V77.7852C113.555 82.5117 113.965 86.5742 114.785 89.9727C115.645 93.332 116.855 96.1055 118.418 98.293C120.02 100.441 121.934 102.043 124.16 103.098C126.387 104.113 128.867 104.621 131.602 104.621C134.531 104.621 137.109 104.113 139.336 103.098C141.602 102.043 143.477 100.441 144.961 98.293C146.484 96.1055 147.617 93.332 148.359 89.9727C149.141 86.5742 149.531 82.5117 149.531 77.7852Z" fill="#2E2E2E"/>
<path d="M0 124.719H167.637V130.578H0V124.719Z" fill="#2E2E2E"/>
<path d="M41.6198 72.0977H24.276L24.1588 63.0156H40.2721C42.694 63.0156 44.8424 62.4688 46.7174 61.375C48.5924 60.2812 50.0573 58.7188 51.1119 56.6875C52.2057 54.6172 52.7526 52.1562 52.7526 49.3047C52.7526 46.1797 52.2838 43.6406 51.3463 41.6875C50.4479 39.6953 49.0612 38.25 47.1862 37.3516C45.3502 36.4141 43.0065 35.9453 40.1549 35.9453H26.5612V112H15.7799V26.6875H40.1549C43.8268 26.6875 47.108 27.1367 49.9987 28.0352C52.8893 28.8945 55.3307 30.2617 57.3229 32.1367C59.3541 33.9727 60.8971 36.3164 61.9518 39.168C63.0065 42.0195 63.5338 45.4375 63.5338 49.4219C63.5338 52.9375 62.733 56.1211 61.1315 58.9727C59.569 61.7852 57.3815 64.0898 54.569 65.8867C51.7565 67.6836 48.5143 68.8359 44.8424 69.3438L41.6198 72.0977ZM41.2096 112H19.8229L26.0924 102.801H41.2096C44.0221 102.801 46.4049 102.176 48.358 100.926C50.3112 99.6758 51.7955 97.918 52.8112 95.6523C53.8658 93.3477 54.3932 90.6328 54.3932 87.5078C54.3932 84.3438 53.9635 81.6094 53.1041 79.3047C52.2448 77 50.8776 75.2227 49.0026 73.9727C47.1276 72.7227 44.6666 72.0977 41.6198 72.0977H27.733L27.8502 63.0156H46.6002L49.0026 66.2969C52.5182 66.6484 55.4674 67.8203 57.8502 69.8125C60.2721 71.7656 62.0885 74.2656 63.2994 77.3125C64.5494 80.3594 65.1744 83.7188 65.1744 87.3906C65.1744 92.7031 64.1783 97.1953 62.1862 100.867C60.233 104.5 57.4596 107.273 53.8658 109.188C50.2721 111.062 46.0533 112 41.2096 112ZM92.5377 26.6875V112H81.7565V26.6875H92.5377ZM166.776 61.9609V76.7852C166.776 82.8008 166.112 88.0938 164.784 92.6641C163.495 97.1953 161.6 100.984 159.1 104.031C156.6 107.078 153.592 109.363 150.077 110.887C146.561 112.41 142.596 113.172 138.182 113.172C133.924 113.172 130.038 112.41 126.522 110.887C123.006 109.363 119.979 107.078 117.44 104.031C114.901 100.984 112.928 97.1953 111.522 92.6641C110.155 88.0938 109.471 82.8008 109.471 76.7852V61.9609C109.471 55.9453 110.155 50.6719 111.522 46.1406C112.889 41.5703 114.842 37.7617 117.381 34.7148C119.921 31.668 122.948 29.3828 126.464 27.8594C129.979 26.2969 133.866 25.5156 138.124 25.5156C142.538 25.5156 146.503 26.2969 150.018 27.8594C153.573 29.3828 156.581 31.668 159.042 34.7148C161.542 37.7617 163.456 41.5703 164.784 46.1406C166.112 50.6719 166.776 55.9453 166.776 61.9609ZM156.112 76.7852V61.8438C156.112 57.1562 155.721 53.1328 154.94 49.7734C154.159 46.375 153.006 43.6016 151.483 41.4531C149.96 39.3047 148.085 37.7227 145.858 36.707C143.631 35.6523 141.053 35.125 138.124 35.125C135.35 35.125 132.85 35.6523 130.624 36.707C128.436 37.7227 126.561 39.3047 124.999 41.4531C123.436 43.6016 122.225 46.375 121.366 49.7734C120.546 53.1328 120.135 57.1562 120.135 61.8438V76.7852C120.135 81.5117 120.546 85.5742 121.366 88.9727C122.225 92.332 123.436 95.1055 124.999 97.293C126.6 99.4414 128.514 101.043 130.741 102.098C132.967 103.113 135.448 103.621 138.182 103.621C141.112 103.621 143.69 103.113 145.917 102.098C148.182 101.043 150.057 99.4414 151.542 97.293C153.065 95.1055 154.198 92.332 154.94 88.9727C155.721 85.5742 156.112 81.5117 156.112 76.7852Z" fill="#B1EE04"/>
<path d="M6.58069 123.719H174.217V129.578H6.58069V123.719Z" fill="#B1EE04"/>
<path d="M48.2003 73.0977H30.8566L30.7394 64.0156H46.8527C49.2745 64.0156 51.423 63.4688 53.298 62.375C55.173 61.2812 56.6378 59.7188 57.6925 57.6875C58.7863 55.6172 59.3331 53.1562 59.3331 50.3047C59.3331 47.1797 58.8644 44.6406 57.9269 42.6875C57.0284 40.6953 55.6417 39.25 53.7667 38.3516C51.9308 37.4141 49.587 36.9453 46.7355 36.9453H33.1417V113H22.3605V27.6875H46.7355C50.4073 27.6875 53.6886 28.1367 56.5792 29.0352C59.4698 29.8945 61.9113 31.2617 63.9034 33.1367C65.9347 34.9727 67.4777 37.3164 68.5323 40.168C69.587 43.0195 70.1144 46.4375 70.1144 50.4219C70.1144 53.9375 69.3136 57.1211 67.712 59.9727C66.1495 62.7852 63.962 65.0898 61.1495 66.8867C58.337 68.6836 55.0948 69.8359 51.423 70.3438L48.2003 73.0977ZM47.7902 113H26.4034L32.673 103.801H47.7902C50.6027 103.801 52.9855 103.176 54.9386 101.926C56.8917 100.676 58.3761 98.918 59.3917 96.6523C60.4464 94.3477 60.9738 91.6328 60.9738 88.5078C60.9738 85.3438 60.5441 82.6094 59.6847 80.3047C58.8253 78 57.4581 76.2227 55.5831 74.9727C53.7081 73.7227 51.2472 73.0977 48.2003 73.0977H34.3136L34.4308 64.0156H53.1808L55.5831 67.2969C59.0988 67.6484 62.048 68.8203 64.4308 70.8125C66.8527 72.7656 68.6691 75.2656 69.88 78.3125C71.13 81.3594 71.755 84.7188 71.755 88.3906C71.755 93.7031 70.7589 98.1953 68.7667 101.867C66.8136 105.5 64.0402 108.273 60.4464 110.188C56.8527 112.062 52.6339 113 47.7902 113ZM99.1183 27.6875V113H88.337V27.6875H99.1183ZM173.357 62.9609V77.7852C173.357 83.8008 172.693 89.0938 171.364 93.6641C170.075 98.1953 168.181 101.984 165.681 105.031C163.181 108.078 160.173 110.363 156.657 111.887C153.142 113.41 149.177 114.172 144.763 114.172C140.505 114.172 136.618 113.41 133.103 111.887C129.587 110.363 126.56 108.078 124.021 105.031C121.482 101.984 119.509 98.1953 118.103 93.6641C116.735 89.0938 116.052 83.8008 116.052 77.7852V62.9609C116.052 56.9453 116.735 51.6719 118.103 47.1406C119.47 42.5703 121.423 38.7617 123.962 35.7148C126.501 32.668 129.528 30.3828 133.044 28.8594C136.56 27.2969 140.446 26.5156 144.704 26.5156C149.118 26.5156 153.083 27.2969 156.599 28.8594C160.153 30.3828 163.161 32.668 165.622 35.7148C168.122 38.7617 170.036 42.5703 171.364 47.1406C172.693 51.6719 173.357 56.9453 173.357 62.9609ZM162.693 77.7852V62.8438C162.693 58.1562 162.302 54.1328 161.521 50.7734C160.739 47.375 159.587 44.6016 158.064 42.4531C156.54 40.3047 154.665 38.7227 152.439 37.707C150.212 36.6523 147.634 36.125 144.704 36.125C141.931 36.125 139.431 36.6523 137.204 37.707C135.017 38.7227 133.142 40.3047 131.579 42.4531C130.017 44.6016 128.806 47.375 127.946 50.7734C127.126 54.1328 126.716 58.1562 126.716 62.8438V77.7852C126.716 82.5117 127.126 86.5742 127.946 89.9727C128.806 93.332 130.017 96.1055 131.579 98.293C133.181 100.441 135.095 102.043 137.321 103.098C139.548 104.113 142.028 104.621 144.763 104.621C147.693 104.621 150.271 104.113 152.497 103.098C154.763 102.043 156.638 100.441 158.122 98.293C159.646 96.1055 160.778 93.332 161.521 89.9727C162.302 86.5742 162.693 82.5117 162.693 77.7852Z" fill="#2E2E2E"/>
<path d="M13.1613 124.719H180.798V130.578H13.1613V124.719Z" fill="#2E2E2E"/>
</svg>
