<svg width="357" height="659" viewBox="0 0 357 659" fill="none" xmlns="http://www.w3.org/2000/svg">
<path d="M101.754 191.395L24 168.074L24 157.059L109.312 184.539V191.453L101.754 191.395ZM24 210.262L101.754 186.941L109.312 186.824V193.797L24 221.277V210.262ZM55.582 210.262H46.3242V169.129H55.582V210.262ZM63.9023 258.836L63.9023 241.492L72.9844 241.375V257.488C72.9844 259.91 73.5312 262.059 74.625 263.934C75.7187 265.809 77.2812 267.273 79.3125 268.328C81.3828 269.422 83.8437 269.969 86.6953 269.969C89.8203 269.969 92.3594 269.5 94.3125 268.562C96.3047 267.664 97.75 266.277 98.6484 264.402C99.5859 262.566 100.055 260.223 100.055 257.371V243.777H24L24 232.996H109.312L109.312 257.371C109.312 261.043 108.863 264.324 107.965 267.215C107.105 270.105 105.738 272.547 103.863 274.539C102.027 276.57 99.6836 278.113 96.832 279.168C93.9805 280.223 90.5625 280.75 86.5781 280.75C83.0625 280.75 79.8789 279.949 77.0273 278.348C74.2148 276.785 71.9102 274.598 70.1133 271.785C68.3164 268.973 67.1641 265.73 66.6562 262.059L63.9023 258.836ZM24 258.426L24 237.039L33.1992 243.309V258.426C33.1992 261.238 33.8242 263.621 35.0742 265.574C36.3242 267.527 38.082 269.012 40.3477 270.027C42.6523 271.082 45.3672 271.609 48.4922 271.609C51.6562 271.609 54.3906 271.18 56.6953 270.32C59 269.461 60.7773 268.094 62.0273 266.219C63.2773 264.344 63.9023 261.883 63.9023 258.836V244.949L72.9844 245.066V263.816L69.7031 266.219C69.3516 269.734 68.1797 272.684 66.1875 275.066C64.2344 277.488 61.7344 279.305 58.6875 280.516C55.6406 281.766 52.2812 282.391 48.6094 282.391C43.2969 282.391 38.8047 281.395 35.1328 279.402C31.5 277.449 28.7266 274.676 26.8125 271.082C24.9375 267.488 24 263.27 24 258.426ZM24 317.84V303.309L33.1992 303.426V317.84C33.1992 322.957 34.1758 327.117 36.1289 330.32C38.1211 333.523 41.0508 335.887 44.918 337.41C48.8242 338.934 53.6484 339.695 59.3906 339.695H73.9805C78.5117 339.695 82.418 339.266 85.6992 338.406C88.9805 337.547 91.6758 336.258 93.7852 334.539C95.8945 332.82 97.457 330.652 98.4727 328.035C99.5273 325.418 100.055 322.352 100.055 318.836V303.016H109.312V318.836C109.312 323.641 108.551 327.977 107.027 331.844C105.543 335.711 103.297 339.031 100.289 341.805C97.3203 344.578 93.6289 346.688 89.2148 348.133C84.8008 349.617 79.6836 350.359 73.8633 350.359H59.3906C53.5703 350.359 48.4531 349.617 44.0391 348.133C39.625 346.688 35.9336 344.559 32.9648 341.746C29.9961 338.934 27.75 335.516 26.2266 331.492C24.7422 327.508 24 322.957 24 317.84ZM109.312 309.285H24V298.504H109.312V309.285ZM109.312 407.195V417.977H49.2539C42.8477 417.977 37.7109 416.746 33.8437 414.285C29.9766 411.824 27.1641 408.582 25.4062 404.559C23.6875 400.574 22.8281 396.277 22.8281 391.668C22.8281 386.746 23.6875 382.312 25.4062 378.367C27.1641 374.422 29.9766 371.277 33.8437 368.934C37.7109 366.629 42.8477 365.477 49.2539 365.477H109.312V376.199H49.2539C44.8008 376.199 41.3242 376.824 38.8242 378.074C36.3242 379.363 34.5664 381.16 33.5508 383.465C32.5352 385.809 32.0273 388.543 32.0273 391.668C32.0273 394.832 32.5352 397.566 33.5508 399.871C34.5664 402.215 36.3242 404.012 38.8242 405.262C41.3242 406.551 44.8008 407.195 49.2539 407.195H109.312ZM33.1992 478.68H24L24 443.289H33.1992L33.1992 478.68ZM109.312 445.223H24V434.441H109.312V445.223ZM33.1992 535.75H24V500.359H33.1992V535.75ZM109.312 502.293H24V491.512H109.312V502.293ZM101.754 577.41L24 554.09L24 543.074L109.312 570.555V577.469L101.754 577.41ZM24 596.277L101.754 572.957L109.312 572.84V579.812L24 607.293V596.277ZM55.582 596.277H46.3242V555.145H55.582V596.277Z" fill="#2E2E2E"/>
<path d="M12.2812 127L12.2812 609.754H6.42187L6.42188 127H12.2812Z" fill="#2E2E2E"/>
<path d="M16.2578 26.6875H40.1055C45.6523 26.6875 50.3008 27.6641 54.0508 29.6172C57.8398 31.5703 60.6914 34.4609 62.6055 38.2891C64.5586 42.0781 65.5352 46.7461 65.5352 52.293C65.5352 56.1992 64.8906 59.7734 63.6016 63.0156C62.3125 66.2188 60.4375 68.9531 57.9766 71.2188C55.5156 73.4453 52.5273 75.1055 49.0117 76.1992L46.082 77.4297H24.8125L24.6953 68.2305H39.9883C43.2695 68.2305 46.0039 67.5273 48.1914 66.1211C50.3789 64.6758 52.0195 62.7422 53.1133 60.3203C54.207 57.8984 54.7539 55.2227 54.7539 52.293C54.7539 49.0117 54.2656 46.1406 53.2891 43.6797C52.3125 41.2188 50.75 39.3242 48.6016 37.9961C46.4922 36.6289 43.6602 35.9453 40.1055 35.9453H27.0391V112H16.2578V26.6875ZM57.2148 112L40.2227 73.3281L51.4141 73.2695L68.7578 111.297V112H57.2148ZM107.605 34.2461L84.2852 112H73.2695L100.75 26.6875H107.664L107.605 34.2461ZM126.473 112L103.152 34.2461L103.035 26.6875H110.008L137.488 112H126.473ZM126.473 80.418V89.6758H85.3398V80.418H126.473ZM152.605 26.6875H163.035L185.359 96.2383L207.625 26.6875H218.055L189.402 112H181.199L152.605 26.6875ZM149.207 26.6875H158.348L159.93 78.7188V112H149.207V26.6875ZM212.254 26.6875H221.395V112H210.672V78.7188L212.254 26.6875ZM251.16 26.6875V112H240.379V26.6875H251.16ZM318.426 102.801V112H270.203V102.801H318.426ZM316.902 34.8906L272.723 112H266.102V103.562L310.223 26.6875H316.902V34.8906ZM312.332 26.6875V35.9453H266.453V26.6875H312.332Z" fill="#2E2E2E"/>
<path d="M7 123.719H323.465V129.578H7V123.719Z" fill="#2E2E2E"/>
</svg>
