<svg width="522" height="151" viewBox="0 0 522 151" fill="none" xmlns="http://www.w3.org/2000/svg"><path d="M36.387 78.543H17.754v-9.2h18.633q5.273 0 8.496-2.109 3.281-2.109 4.746-5.859 1.523-3.75 1.523-8.555 0-4.395-1.523-8.261-1.466-3.868-4.746-6.211-3.223-2.403-8.496-2.403H19.98V112H9.199V26.688h27.188q8.262 0 13.945 3.34 5.684 3.34 8.613 9.257 2.988 5.86 2.989 13.418 0 8.203-2.989 14.004-2.93 5.8-8.613 8.848-5.683 2.988-13.945 2.988M75.82 26.687h23.848q8.32 0 13.945 2.93 5.684 2.93 8.555 8.672 2.93 5.684 2.93 14.004 0 5.859-1.934 10.723-1.933 4.804-5.625 8.203-3.691 3.34-8.965 4.98l-2.929 1.23h-21.27l-.117-9.198H99.55q4.921 0 8.203-2.11 3.28-2.168 4.922-5.8 1.64-3.634 1.64-8.028 0-4.922-1.464-8.613-1.466-3.692-4.688-5.684-3.163-2.05-8.496-2.05H86.602V112H75.82zM116.777 112 99.785 73.328l11.192-.059 17.343 38.028V112zM195 61.96v14.825q0 9.024-1.992 15.88-1.934 6.795-5.684 11.366t-9.023 6.856-11.895 2.285q-6.387 0-11.66-2.285t-9.082-6.856-5.918-11.367q-2.05-6.855-2.051-15.879V61.961q0-9.025 2.051-15.82 2.05-6.856 5.859-11.426t9.083-6.856q5.273-2.343 11.66-2.343 6.621 0 11.894 2.343 5.333 2.286 9.024 6.856 3.75 4.57 5.742 11.426Q195 52.936 195 61.96m-10.664 14.825V61.844q0-7.032-1.172-12.07-1.172-5.098-3.457-8.32-2.284-3.224-5.625-4.747-3.34-1.582-7.734-1.582-4.161 0-7.5 1.582-3.282 1.524-5.625 4.746t-3.633 8.32q-1.23 5.04-1.231 12.07v14.942q0 7.09 1.231 12.188 1.289 5.039 3.633 8.32 2.401 3.222 5.742 4.805 3.34 1.523 7.441 1.523 4.395 0 7.735-1.523 3.398-1.583 5.625-4.805 2.285-3.281 3.398-8.32 1.172-5.098 1.172-12.188m73.242 26.016V112h-37.031v-9.199zM222.48 26.688V112h-10.781V26.688zm30.118 36.68v9.198h-32.051v-9.199zm4.394-36.68v9.257h-36.445v-9.257zm43.828 60.41v-60.41h10.723v60.41q0 8.437-2.93 14.238-2.93 5.8-8.144 8.848-5.157 2.988-11.895 2.988-6.62 0-11.836-2.695-5.215-2.696-8.203-8.204-2.93-5.507-2.93-13.886h10.782q0 5.391 1.582 8.847 1.64 3.457 4.394 5.098t6.211 1.641q3.516 0 6.27-1.875 2.754-1.934 4.336-5.684 1.64-3.809 1.64-9.316m71.25-2.227h10.782q-.41 8.79-3.575 15.176-3.105 6.329-9.082 9.726-5.917 3.399-14.824 3.399-6.387 0-11.543-2.52t-8.848-7.207q-3.632-4.746-5.566-11.367t-1.934-14.883V61.434q0-8.204 1.934-14.825 1.992-6.62 5.684-11.308 3.75-4.746 9.082-7.266 5.39-2.52 12.187-2.52 8.32 0 14.063 3.34 5.8 3.282 8.906 9.668 3.163 6.33 3.516 15.528H372.07q-.41-6.739-2.109-10.957-1.7-4.278-5.039-6.27-3.281-2.05-8.555-2.05-4.688 0-8.144 1.874-3.399 1.875-5.625 5.391-2.168 3.458-3.282 8.379-1.054 4.863-1.054 10.898v15.88q0 5.624.879 10.488.937 4.863 2.929 8.554 2.052 3.633 5.332 5.684 3.282 2.05 7.969 2.051 5.917 0 9.375-1.934 3.457-1.934 5.098-6.152 1.7-4.22 2.226-11.016m51.035-58.183V112h-10.664V26.688zm22.442 0v9.257h-55.488v-9.257zm48.984 63.75q0-2.989-.703-5.274-.703-2.344-2.461-4.219-1.757-1.875-4.922-3.574-3.164-1.7-8.027-3.457-5.274-1.875-9.551-4.16-4.277-2.344-7.324-5.332a21.5 21.5 0 0 1-4.629-6.856q-1.641-3.867-1.641-8.847t1.7-9.2q1.758-4.218 4.922-7.324 3.222-3.165 7.734-4.922t10.078-1.757q8.32 0 14.004 3.691 5.742 3.633 8.672 9.55 2.93 5.86 2.929 12.54h-10.781q0-4.804-1.582-8.496-1.523-3.75-4.804-5.86-3.223-2.168-8.438-2.168-4.687 0-7.734 1.817-2.99 1.815-4.453 4.922-1.407 3.105-1.407 7.09 0 2.694.938 4.921.938 2.169 2.871 4.043 1.992 1.876 4.922 3.457 2.988 1.582 7.031 3.047 6.27 2.051 10.723 4.57 4.452 2.52 7.265 5.684a19.3 19.3 0 0 1 4.102 7.09q1.347 3.926 1.347 8.906 0 5.215-1.757 9.434-1.7 4.219-4.981 7.207t-7.91 4.629q-4.628 1.582-10.43 1.582-5.039 0-9.902-1.641a27.2 27.2 0 0 1-8.73-4.922q-3.926-3.28-6.27-8.086-2.344-4.863-2.344-11.25h10.782q0 4.395 1.289 7.559 1.288 3.106 3.574 5.156a14.9 14.9 0 0 0 5.215 3.047q2.988.938 6.386.938 4.688 0 7.852-1.641 3.222-1.64 4.805-4.687 1.64-3.048 1.64-7.207M0 123.719h388.184v5.859H0zm386.484 0h62.461v5.859h-62.461zm61.524 0h62.226v5.859h-62.226z" fill="#2E2E2E"/><path d="M40.387 82.543H21.754v-9.2h18.633q5.273 0 8.496-2.109 3.281-2.109 4.746-5.859 1.523-3.75 1.523-8.555 0-4.395-1.523-8.261-1.466-3.868-4.746-6.211-3.223-2.403-8.496-2.403H23.98V116H13.199V30.688h27.188q8.262 0 13.945 3.34 5.684 3.34 8.613 9.257 2.989 5.86 2.989 13.418 0 8.203-2.989 14.004-2.93 5.8-8.613 8.848-5.683 2.988-13.945 2.988M79.82 30.687h23.848q8.32 0 13.945 2.93 5.684 2.93 8.555 8.672 2.93 5.684 2.93 14.004 0 5.859-1.934 10.723-1.933 4.804-5.625 8.203-3.691 3.34-8.965 4.98l-2.929 1.23h-21.27l-.117-9.198h15.293q4.921 0 8.203-2.11 3.28-2.168 4.922-5.8 1.64-3.634 1.64-8.028 0-4.922-1.464-8.613-1.466-3.692-4.688-5.684-3.163-2.05-8.496-2.05H90.602V116H79.82zM120.777 116l-16.992-38.672 11.192-.059 17.343 38.028V116zM199 65.96v14.825q0 9.024-1.992 15.88-1.934 6.795-5.684 11.366t-9.023 6.856-11.895 2.285q-6.387 0-11.66-2.285t-9.082-6.856-5.918-11.367q-2.05-6.855-2.051-15.879V65.961q0-9.024 2.051-15.82 2.05-6.856 5.859-11.426t9.083-6.856q5.273-2.343 11.66-2.343 6.621 0 11.894 2.343 5.333 2.286 9.024 6.856 3.75 4.57 5.742 11.426Q199 56.936 199 65.96m-10.664 14.825V65.844q0-7.032-1.172-12.07-1.172-5.098-3.457-8.32-2.284-3.224-5.625-4.747-3.34-1.582-7.734-1.582-4.161 0-7.5 1.582-3.282 1.524-5.625 4.746t-3.633 8.32q-1.23 5.04-1.231 12.07v14.942q0 7.09 1.231 12.188 1.289 5.039 3.633 8.32 2.401 3.222 5.742 4.805 3.34 1.523 7.441 1.523 4.395 0 7.735-1.523 3.398-1.583 5.625-4.805 2.285-3.281 3.398-8.32 1.172-5.098 1.172-12.188m73.242 26.016V116h-37.031v-9.199zM226.48 30.688V116h-10.781V30.688zm30.118 36.68v9.198h-32.051v-9.199zm4.394-36.68v9.257h-36.445v-9.257zm43.828 60.41v-60.41h10.723v60.41q0 8.437-2.93 14.238-2.93 5.8-8.144 8.848-5.157 2.988-11.895 2.988-6.62 0-11.836-2.695-5.215-2.696-8.203-8.204-2.93-5.507-2.93-13.886h10.782q0 5.391 1.582 8.847 1.64 3.457 4.394 5.098t6.211 1.641q3.516 0 6.27-1.875 2.754-1.934 4.336-5.684 1.64-3.809 1.64-9.316m71.25-2.227h10.782q-.41 8.79-3.575 15.176-3.105 6.329-9.082 9.726-5.917 3.399-14.824 3.399-6.387 0-11.543-2.52t-8.848-7.207q-3.632-4.746-5.566-11.367t-1.934-14.883V65.434q0-8.204 1.934-14.825 1.992-6.62 5.684-11.308 3.75-4.746 9.082-7.266 5.39-2.52 12.187-2.52 8.32 0 14.063 3.34 5.8 3.282 8.906 9.668 3.163 6.33 3.516 15.528H376.07q-.41-6.739-2.109-10.957-1.7-4.278-5.039-6.27-3.281-2.05-8.555-2.05-4.688 0-8.144 1.874-3.399 1.875-5.625 5.391-2.168 3.458-3.282 8.379-1.054 4.863-1.054 10.898v15.88q0 5.624.879 10.488.937 4.863 2.929 8.554 2.052 3.633 5.332 5.684 3.282 2.05 7.969 2.051 5.917 0 9.375-1.934 3.457-1.934 5.098-6.152 1.7-4.22 2.226-11.016m51.035-58.183V116h-10.664V30.688zm22.442 0v9.257h-55.488v-9.257zm48.984 63.75q0-2.989-.703-5.274-.703-2.344-2.461-4.219-1.757-1.875-4.922-3.574-3.164-1.7-8.027-3.457-5.274-1.875-9.551-4.16-4.277-2.344-7.324-5.332a21.5 21.5 0 0 1-4.629-6.856q-1.641-3.867-1.641-8.847t1.7-9.2q1.758-4.218 4.922-7.324 3.222-3.165 7.734-4.922t10.078-1.757q8.32 0 14.004 3.691 5.742 3.633 8.672 9.55 2.93 5.86 2.929 12.54h-10.781q0-4.804-1.582-8.496-1.523-3.75-4.804-5.86-3.223-2.168-8.438-2.168-4.687 0-7.734 1.817-2.99 1.815-4.453 4.922-1.407 3.105-1.407 7.09 0 2.694.938 4.921.938 2.169 2.871 4.043 1.992 1.876 4.922 3.457 2.988 1.582 7.031 3.047 6.27 2.051 10.723 4.57 4.452 2.52 7.265 5.684a19.3 19.3 0 0 1 4.102 7.09q1.347 3.926 1.347 8.906 0 5.215-1.757 9.434-1.7 4.218-4.981 7.207t-7.91 4.629q-4.628 1.582-10.43 1.582-5.039 0-9.902-1.641a27.2 27.2 0 0 1-8.73-4.922q-3.926-3.28-6.27-8.086-2.344-4.863-2.344-11.25h10.782q0 4.395 1.289 7.559 1.288 3.105 3.574 5.156a14.9 14.9 0 0 0 5.215 3.047q2.988.938 6.386.938 4.688 0 7.852-1.641 3.222-1.64 4.805-4.687 1.64-3.048 1.64-7.207M4 127.719h388.184v5.859H4zm386.484 0h62.461v5.859h-62.461zm61.524 0h62.226v5.859h-62.226z" fill="#B1EE04"/><path d="M44.387 78.543H25.754v-9.2h18.633q5.273 0 8.496-2.109 3.281-2.109 4.746-5.859 1.523-3.75 1.523-8.555 0-4.395-1.523-8.261-1.466-3.868-4.746-6.211-3.223-2.403-8.496-2.403H27.98V112H17.199V26.688h27.188q8.262 0 13.945 3.34 5.684 3.34 8.613 9.257 2.99 5.86 2.989 13.418 0 8.203-2.989 14.004-2.93 5.8-8.613 8.848-5.683 2.988-13.945 2.988M83.82 26.687h23.848q8.32 0 13.945 2.93 5.684 2.93 8.555 8.672 2.93 5.684 2.93 14.004 0 5.859-1.934 10.723-1.933 4.804-5.625 8.203-3.691 3.34-8.965 4.98l-2.929 1.23h-21.27l-.117-9.198h15.293q4.921 0 8.203-2.11 3.28-2.168 4.922-5.8 1.64-3.634 1.64-8.028 0-4.922-1.464-8.613-1.466-3.692-4.688-5.684-3.163-2.05-8.496-2.05H94.602V112H83.82zM124.777 112l-16.992-38.672 11.192-.059 17.343 38.028V112zM203 61.96v14.825q0 9.024-1.992 15.88-1.934 6.795-5.684 11.366t-9.023 6.856-11.895 2.285q-6.387 0-11.66-2.285t-9.082-6.856-5.918-11.367q-2.05-6.855-2.051-15.879V61.961q0-9.025 2.051-15.82 2.05-6.856 5.859-11.426t9.083-6.856q5.273-2.343 11.66-2.343 6.621 0 11.894 2.343 5.333 2.286 9.024 6.856 3.75 4.57 5.742 11.426Q203 52.936 203 61.96m-10.664 14.825V61.844q0-7.032-1.172-12.07-1.172-5.098-3.457-8.32-2.284-3.224-5.625-4.747-3.34-1.582-7.734-1.582-4.161 0-7.5 1.582-3.282 1.524-5.625 4.746t-3.633 8.32q-1.23 5.04-1.231 12.07v14.942q0 7.09 1.231 12.188 1.289 5.039 3.633 8.32 2.401 3.222 5.742 4.805 3.34 1.523 7.441 1.523 4.395 0 7.735-1.523 3.398-1.583 5.625-4.805 2.285-3.281 3.398-8.32 1.172-5.098 1.172-12.188m73.242 26.016V112h-37.031v-9.199zM230.48 26.688V112h-10.781V26.688zm30.118 36.68v9.198h-32.051v-9.199zm4.394-36.68v9.257h-36.445v-9.257zm43.828 60.41v-60.41h10.723v60.41q0 8.437-2.93 14.238-2.93 5.8-8.144 8.848-5.157 2.988-11.895 2.988-6.62 0-11.836-2.695-5.215-2.696-8.203-8.204-2.93-5.507-2.93-13.886h10.782q0 5.391 1.582 8.847 1.64 3.457 4.394 5.098t6.211 1.641q3.516 0 6.27-1.875 2.754-1.934 4.336-5.684 1.64-3.809 1.64-9.316m71.25-2.227h10.782q-.41 8.79-3.575 15.176-3.105 6.329-9.082 9.726-5.917 3.399-14.824 3.399-6.387 0-11.543-2.52t-8.848-7.207q-3.632-4.746-5.566-11.367t-1.934-14.883V61.434q0-8.204 1.934-14.825 1.992-6.62 5.684-11.308 3.75-4.746 9.082-7.266 5.39-2.52 12.187-2.52 8.32 0 14.063 3.34 5.8 3.282 8.906 9.668 3.163 6.33 3.516 15.528H380.07q-.41-6.739-2.109-10.957-1.7-4.278-5.039-6.27-3.281-2.05-8.555-2.05-4.688 0-8.144 1.874-3.399 1.875-5.625 5.391-2.168 3.458-3.282 8.379-1.054 4.863-1.054 10.898v15.88q0 5.624.879 10.488.937 4.863 2.929 8.554 2.052 3.633 5.332 5.684 3.282 2.05 7.969 2.051 5.917 0 9.375-1.934 3.457-1.934 5.098-6.152 1.7-4.22 2.226-11.016m51.035-58.183V112h-10.664V26.688zm22.442 0v9.257h-55.488v-9.257zm48.984 63.75q0-2.989-.703-5.274-.703-2.344-2.461-4.219-1.757-1.875-4.922-3.574-3.164-1.7-8.027-3.457-5.274-1.875-9.551-4.16-4.277-2.344-7.324-5.332a21.5 21.5 0 0 1-4.629-6.856q-1.641-3.867-1.641-8.847t1.7-9.2q1.758-4.218 4.922-7.324 3.222-3.165 7.734-4.922t10.078-1.757q8.32 0 14.004 3.691 5.742 3.633 8.672 9.55 2.93 5.86 2.929 12.54h-10.781q0-4.804-1.582-8.496-1.523-3.75-4.804-5.86-3.223-2.168-8.438-2.168-4.687 0-7.734 1.817-2.99 1.815-4.453 4.922-1.407 3.105-1.407 7.09 0 2.694.938 4.921.938 2.169 2.871 4.043 1.992 1.876 4.922 3.457 2.988 1.582 7.031 3.047 6.27 2.051 10.723 4.57 4.452 2.52 7.265 5.684a19.3 19.3 0 0 1 4.102 7.09q1.347 3.926 1.347 8.906 0 5.215-1.757 9.434-1.7 4.219-4.981 7.207t-7.91 4.629q-4.628 1.582-10.43 1.582-5.039 0-9.902-1.641a27.2 27.2 0 0 1-8.73-4.922q-3.926-3.28-6.27-8.086-2.344-4.863-2.344-11.25h10.782q0 4.395 1.289 7.559 1.288 3.106 3.574 5.156a14.9 14.9 0 0 0 5.215 3.047q2.988.938 6.386.938 4.688 0 7.852-1.641 3.222-1.64 4.805-4.687 1.64-3.048 1.64-7.207M8 123.719h388.184v5.859H8zm386.484 0h62.461v5.859h-62.461zm61.524 0h62.226v5.859h-62.226z" fill="#2E2E2E"/></svg>