<svg width="32" height="33" viewBox="0 0 32 33" fill="none" xmlns="http://www.w3.org/2000/svg">
<path d="M30.6352 0.546387H1.27717C0.57114 0.546387 0.000732422 1.11679 0.000732422 1.82282V31.1809C0.000732422 31.8869 0.57114 32.4573 1.27717 32.4573H30.6352C31.3412 32.4573 31.9117 31.8869 31.9117 31.1809V1.82282C31.9117 1.11679 31.3412 0.546387 30.6352 0.546387ZM16.0001 16.7452L8.34145 23.1672C8.13403 23.3427 7.81891 23.1952 7.81891 22.9239V20.4229C7.81891 20.3312 7.86278 20.2394 7.93458 20.1796L12.3144 16.5018L7.93458 12.8241C7.89792 12.7952 7.86842 12.7581 7.84836 12.716C7.8283 12.6738 7.81822 12.6275 7.81891 12.5808V10.0798C7.81891 9.80853 8.13403 9.66094 8.34145 9.83645L16.0001 16.2545C16.1556 16.3822 16.1556 16.6175 16.0001 16.7452ZM24.0935 22.9239C24.0935 23.0994 23.9579 23.243 23.7943 23.243H16.4149C16.2514 23.243 16.1157 23.0994 16.1157 22.9239V21.0093C16.1157 20.8338 16.2514 20.6902 16.4149 20.6902H23.7943C23.9579 20.6902 24.0935 20.8338 24.0935 21.0093V22.9239Z" fill="#C0C0C0"/>
</svg>
